<svg width="60" height="60" viewBox="0 0 60 60" fill="none" xmlns="http://www.w3.org/2000/svg">
<path d="M21.5396 9.60728C22.2662 9.60729 22.9356 10.0013 23.2882 10.6365L26.6171 16.6329C26.9374 17.2099 26.9524 17.9078 26.6573 18.4981L23.5933 24.6259C23.5933 24.6259 24.4471 29.0152 28.0201 32.5883C31.5932 36.1613 35.9677 37.0003 35.9677 37.0003L42.0949 33.9367C42.6856 33.6414 43.3839 33.6567 43.9611 33.9776L49.9729 37.3199C50.6076 37.6728 51.0011 38.3418 51.0011 39.0679L51.0011 46.9699C51.0011 49.5535 48.6025 51.4228 46.1435 50.6302C39.9656 48.6389 29.3104 44.4851 22.7168 37.8916C16.1233 31.298 11.9695 20.6427 9.97822 14.4649C9.1856 12.0058 11.0549 9.60728 13.6385 9.60728L21.5396 9.60728Z" stroke="white" stroke-width="4" stroke-linejoin="round"/>
</svg>
