<svg width="46" height="47" viewBox="0 0 46 47" fill="none" xmlns="http://www.w3.org/2000/svg">
<path d="M0 0H46V47H0V0Z" fill="white"/>
<path fill-rule="evenodd" clip-rule="evenodd" d="M45 1H1V46H45V1ZM0 0V47H46V0H0Z" fill="#0A67AB"/>
<path fill-rule="evenodd" clip-rule="evenodd" d="M22.4853 33.6066L12.9393 24.0606C12.3536 23.4748 12.3536 22.5251 12.9393 21.9393L22.4853 12.3934C23.0711 11.8076 24.0208 11.8076 24.6066 12.3934C25.1924 12.9791 25.1924 13.9289 24.6066 14.5147L17.6213 21.5L36 21.5V24.5L17.6213 24.5L24.6066 31.4852C25.1924 32.071 25.1924 33.0208 24.6066 33.6066C24.0208 34.1923 23.0711 34.1923 22.4853 33.6066Z" fill="#0A67AB"/>
</svg>
