<svg width="18" height="13" viewBox="0 0 18 13" fill="none" xmlns="http://www.w3.org/2000/svg">
<path d="M17.5923 1.21541C17.6627 1.28506 17.7184 1.36781 17.7565 1.4589C17.7946 1.55 17.8142 1.64766 17.8142 1.74629C17.8142 1.84492 17.7946 1.94258 17.7565 2.03368C17.7184 2.12477 17.6627 2.20752 17.5923 2.27717L7.02079 12.7748C6.95065 12.8447 6.86732 12.9001 6.77558 12.9379C6.68384 12.9757 6.5855 12.9951 6.48617 12.9951C6.38685 12.9951 6.2885 12.9757 6.19676 12.9379C6.10502 12.9001 6.0217 12.8447 5.95155 12.7748L0.665782 7.526C0.523992 7.3852 0.444336 7.19424 0.444336 6.99512C0.444336 6.796 0.523992 6.60503 0.665782 6.46424C0.807571 6.32344 0.999879 6.24434 1.2004 6.24434C1.40092 6.24434 1.59323 6.32344 1.73502 6.46424L6.48617 11.1837L16.5231 1.21541C16.5932 1.14558 16.6766 1.09018 16.7683 1.05238C16.86 1.01458 16.9584 0.995117 17.0577 0.995117C17.157 0.995117 17.2554 1.01458 17.3471 1.05238C17.4389 1.09018 17.5222 1.14558 17.5923 1.21541Z" fill="white"/>
</svg>
